<svg width="24" height="22" viewBox="0 0 24 22" fill="none" xmlns="http://www.w3.org/2000/svg">
<path d="M19.0617 7.38722C18.8257 7.30118 18.5877 7.22148 18.348 7.14818C18.3883 6.97329 18.4253 6.80052 18.4583 6.63079C18.9985 3.84355 18.6453 1.59809 17.4389 0.858774C16.2823 0.150021 14.3906 0.889057 12.4802 2.65606C12.2919 2.83052 12.1078 3.01 11.928 3.19435C11.8077 3.07177 11.6852 2.95156 11.5607 2.8338C9.55845 0.944469 7.55152 0.14818 6.34643 0.889609C5.19079 1.60057 4.84859 3.71146 5.33499 6.35299C5.38338 6.61461 5.43802 6.87488 5.49886 7.13354C5.21478 7.21933 4.94066 7.31064 4.67831 7.40784C2.33083 8.27767 0.831696 9.64078 0.831696 11.0547C0.831696 12.515 2.44109 13.9797 4.88609 14.8679C5.08431 14.9396 5.28419 15.006 5.48552 15.0672C5.42013 15.3458 5.36208 15.6262 5.31143 15.9083C4.84772 18.504 5.20984 20.565 6.36236 21.2714C7.55273 22.001 9.55066 21.2512 11.496 19.4439C11.6538 19.2969 11.808 19.1458 11.9587 18.9907C12.1533 19.1903 12.3532 19.3841 12.558 19.5719C14.4425 21.2952 16.3036 21.991 17.455 21.2827C18.6442 20.551 19.0308 18.3369 18.5289 15.6432C18.4894 15.4322 18.4451 15.2222 18.396 15.0134C18.5363 14.9692 18.674 14.9238 18.8082 14.8764C21.3501 13.9815 23.0039 12.5345 23.0039 11.0547C23.0039 9.63562 21.4564 8.26331 19.0617 7.38722ZM18.5104 13.921C18.3891 13.9636 18.2648 14.0048 18.138 14.0448C17.8574 13.1007 17.4787 12.0968 17.0152 11.0596C17.4575 10.0471 17.8216 9.05601 18.0943 8.11806C18.3212 8.18784 18.5412 8.26138 18.7534 8.33897C20.8052 9.0897 22.0567 10.1995 22.0567 11.0547C22.0567 11.9656 20.7051 13.1481 18.5104 13.921ZM17.5998 15.8387C17.8217 17.0298 17.8533 18.1067 17.7063 18.9486C17.5743 19.7052 17.3088 20.2095 16.9803 20.4115C16.2817 20.8414 14.7874 20.2827 13.1758 18.8088C12.9853 18.6342 12.7994 18.4541 12.6183 18.2685C13.2431 17.5424 13.8675 16.6982 14.4769 15.7606C15.5488 15.6596 16.5614 15.4943 17.4797 15.2686C17.524 15.4576 17.564 15.6477 17.5998 15.8387ZM8.39069 20.3372C7.70803 20.5934 7.16429 20.6008 6.8356 20.3994C6.13622 19.9707 5.84547 18.3158 6.24206 16.096C6.2892 15.8337 6.34318 15.5729 6.40394 15.3138C7.31213 15.5273 8.31741 15.6808 9.39181 15.7734C10.0054 16.6909 10.6477 17.5341 11.2952 18.2725C11.1576 18.414 11.0167 18.5518 10.8728 18.6859C10.0125 19.4851 9.15043 20.0521 8.39069 20.3372ZM5.19252 13.9154C4.11136 13.5226 3.2185 13.0122 2.60651 12.4553C2.05654 11.9548 1.77895 11.4579 1.77895 11.0547C1.77895 10.1966 2.98257 9.10222 4.99011 8.3584C5.23375 8.26819 5.48873 8.18305 5.75332 8.10315C6.03082 9.06227 6.39476 10.0651 6.83396 11.0792C6.38904 12.1083 6.01991 13.1271 5.73972 14.0975C5.55594 14.0416 5.37349 13.9809 5.19252 13.9154ZM6.26458 6.1596C5.8479 3.89647 6.12462 2.1893 6.82105 1.76082C7.56278 1.30446 9.203 1.95513 10.9318 3.58655C11.0446 3.69318 11.1555 3.80196 11.2645 3.91286C10.6203 4.64803 9.9838 5.485 9.37571 6.39699C8.33292 6.49971 7.33474 6.66466 6.41701 6.88566C6.36047 6.64507 6.30964 6.40292 6.26458 6.1596ZM15.8287 8.66951C15.6119 8.27159 15.3871 7.87868 15.1544 7.49105C15.8619 7.58613 16.5397 7.71233 17.1762 7.86659C16.9851 8.51754 16.7469 9.19804 16.4666 9.89575C16.2616 9.48253 16.049 9.0737 15.8287 8.66951ZM11.9285 4.63229C12.3653 5.13532 12.8029 5.69689 13.2332 6.30623C12.3602 6.26241 11.4857 6.26223 10.6127 6.30568C11.0435 5.70195 11.4847 5.14112 11.9285 4.63229ZM8.00319 8.67641C7.78566 9.07735 7.57696 9.48363 7.37726 9.89492C7.10149 9.1997 6.86548 8.51607 6.67277 7.85592C7.30537 7.70551 7.97998 7.58254 8.68291 7.48921C8.44763 7.8792 8.22099 8.27511 8.00319 8.67641ZM8.70309 14.6918C7.97686 14.6056 7.29212 14.489 6.6597 14.3427C6.85543 13.6707 7.09664 12.9726 7.37839 12.2624C7.57888 12.674 7.78844 13.0805 8.00692 13.4817C8.23158 13.894 8.46422 14.2979 8.70309 14.6918ZM11.9546 17.548C11.5056 17.0333 11.0578 16.4638 10.6206 15.8513C11.0451 15.869 11.4779 15.878 11.9178 15.878C12.3697 15.878 12.8165 15.8672 13.2562 15.8464C12.8244 16.4699 12.3885 17.0403 11.9546 17.548ZM16.4755 12.2262C16.7719 12.9441 17.0217 13.6386 17.22 14.299C16.5772 14.455 15.8831 14.5805 15.1517 14.6738C15.3861 14.2789 15.613 13.8792 15.8324 13.4748C16.0555 13.0637 16.2699 12.6474 16.4755 12.2262ZM15.012 12.9718C14.6761 13.5919 14.3214 14.2002 13.9483 14.7957C13.2725 14.8466 12.5953 14.8718 11.9178 14.8715C11.2278 14.8715 10.5566 14.8486 9.91035 14.8041C9.52755 14.2099 9.16604 13.6006 8.8266 12.9774C8.48875 12.3574 8.17326 11.7241 7.88064 11.0787C8.17251 10.4332 8.48713 9.79956 8.82382 9.17917L8.82374 9.17926C9.1603 8.55871 9.51893 7.95196 9.89883 7.36034C10.5582 7.30732 11.2344 7.27971 11.9177 7.27971C12.6042 7.27971 13.2813 7.3076 13.9405 7.36099C14.3166 7.95172 14.6729 8.55638 15.0088 9.17383C15.3466 9.79286 15.6654 10.4234 15.9647 11.0645C15.6685 11.7121 15.3507 12.3483 15.012 12.9718ZM16.9659 1.73082C17.7083 2.18589 17.9971 4.02101 17.5306 6.42755C17.5008 6.58108 17.4673 6.73747 17.431 6.89606C16.511 6.67037 15.5121 6.50257 14.4663 6.39828C13.8571 5.47626 13.2258 4.63799 12.5921 3.9123C12.7581 3.74216 12.9282 3.57642 13.102 3.41526C14.739 1.90138 16.2688 1.30363 16.9659 1.73082ZM11.9178 8.95053C13.0113 8.95053 13.8977 9.89262 13.8977 11.0547C13.8977 12.2168 13.0113 13.1589 11.9178 13.1589C10.8243 13.1589 9.93789 12.2168 9.93789 11.0547C9.93789 9.89262 10.8243 8.95053 11.9178 8.95053Z" fill="#00D8FF"/>
</svg>
