<svg width="20" height="20" viewBox="0 0 20 20" fill="none" xmlns="http://www.w3.org/2000/svg">
<path d="M2.10526 20C1.52632 20 1.03088 19.8221 0.618947 19.4664C0.206316 19.11 0 18.6818 0 18.1818V5.45455H2.10526V18.1818H13.6842V20H2.10526ZM6.31579 16.3636C5.73684 16.3636 5.2414 16.1858 4.82947 15.83C4.41684 15.4736 4.21053 15.0455 4.21053 14.5455V1.81818C4.21053 1.31818 4.41684 0.89 4.82947 0.533636C5.2414 0.177879 5.73684 0 6.31579 0H13.6842L20 5.45455V14.5455C20 15.0455 19.794 15.4736 19.3821 15.83C18.9695 16.1858 18.4737 16.3636 17.8947 16.3636H6.31579ZM12.6316 6.36364H17.8947L12.6316 1.81818V6.36364Z" fill="white"/>
</svg>
